<svg xmlns="http://www.w3.org/2000/svg" xmlns:v="https://svgstorm.com"
viewBox = "0 0 672 536"
width="672"
height="500">
<g fill="#000000" fill-opacity="0.00" stroke="None">
<path d="
M 0.00 536.00 
L 672.00 536.00
L 672.00 0.00
L 0.00 0.00
L 0.00 536.00
M 345.00 3.00 
C 400.62 5.36 456.81 9.96 508.07 29.93 C 529.26 38.15 556.34 55.70 547.67 82.67 C 531.79 194.09 515.80 305.53 500.01 417.01 C 493.69 442.32 500.86 473.39 481.75 493.75 C 414.95 539.97 321.62 537.07 244.78 519.22 C 222.62 513.04 198.17 504.71 184.08 484.92 C 174.93 459.09 176.54 429.96 171.02 402.98 C 155.71 291.23 138.37 180.00 124.00 68.00 C 129.22 43.54 156.10 33.29 176.68 25.68 C 229.96 7.59 287.29 4.13 345.00 3.00 Z"/>
</g>
<g fill="#FEFEFE" fill-opacity="1.00" stroke="None">
<path d="
M 345.00 3.00 
C 287.29 4.13 229.96 7.59 176.68 25.68 C 156.10 33.29 129.22 43.54 124.00 68.00 C 138.37 180.00 155.71 291.23 171.02 402.98 C 176.54 429.96 174.93 459.09 184.08 484.92 C 198.17 504.71 222.62 513.04 244.78 519.22 C 321.62 537.07 414.95 539.97 481.75 493.75 C 500.86 473.39 493.69 442.32 500.01 417.01 C 515.80 305.53 531.79 194.09 547.67 82.67 C 556.34 55.70 529.26 38.15 508.07 29.93 C 456.81 9.96 400.62 5.36 345.00 3.00
M 354.00 22.00 
C 411.90 26.44 473.46 28.23 523.25 59.75 C 542.06 74.98 514.17 89.28 501.31 94.31 C 406.96 127.61 295.08 127.07 197.93 103.07 C 181.23 98.40 164.17 92.78 150.25 81.75 C 130.70 66.95 158.62 52.50 171.23 47.23 C 228.70 25.96 291.00 22.08 354.00 22.00
M 172.00 114.00 
C 173.45 124.72 174.81 135.52 176.93 146.07 C 179.65 155.70 176.72 168.77 184.08 175.92 C 196.73 177.21 187.65 158.50 188.01 150.99 C 186.36 140.00 184.51 129.05 183.00 118.00
C 280.84 146.65 395.05 145.02 493.00 118.00
C 490.50 128.12 490.23 138.87 488.07 149.07 C 489.49 158.14 479.70 173.02 491.03 176.97 C 500.39 171.89 495.86 157.92 499.00 149.00 C 499.94 137.91 502.21 127.15 503.00 116.00 C 507.81 108.82 519.14 107.73 526.00 102.00
C 514.73 182.00 502.75 261.84 492.00 342.00 C 485.58 376.31 489.14 420.96 450.77 437.77 C 381.78 469.99 292.02 469.84 222.92 438.08 C 183.81 422.17 187.75 376.81 181.22 342.78 C 170.36 262.31 158.52 182.26 147.00 102.00
C 154.94 106.80 163.27 111.09 172.00 114.00
M 480.00 429.00 
C 473.62 447.50 482.22 474.81 461.77 485.77 C 387.01 522.04 288.46 521.48 213.25 486.75 C 191.13 477.14 198.54 449.35 194.00 430.00
C 232.89 464.83 286.04 470.89 337.00 472.00 C 388.03 470.89 441.52 464.30 480.00 429.00 Z"/>
</g>
<g fill="#000000" fill-opacity="1.00" stroke="None">
<path d="
M 354.00 22.00 
C 291.00 22.08 228.70 25.96 171.23 47.23 C 158.62 52.50 130.70 66.95 150.25 81.75 C 164.17 92.78 181.23 98.40 197.93 103.07 C 295.08 127.07 406.96 127.61 501.31 94.31 C 514.17 89.28 542.06 74.98 523.25 59.75 C 473.46 28.23 411.90 26.44 354.00 22.00 Z"/>
</g>
<g fill="#000000" fill-opacity="1.00" stroke="None">
<path d="
M 172.00 114.00 
C 163.27 111.09 154.94 106.80 147.00 102.00
C 158.52 182.26 170.36 262.31 181.22 342.78 C 187.75 376.81 183.81 422.17 222.92 438.08 C 292.02 469.84 381.78 469.99 450.77 437.77 C 489.14 420.96 485.58 376.31 492.00 342.00 C 502.75 261.84 514.73 182.00 526.00 102.00
C 519.14 107.73 507.81 108.82 503.00 116.00 C 502.21 127.15 499.94 137.91 499.00 149.00 C 495.86 157.92 500.39 171.89 491.03 176.97 C 479.70 173.02 489.49 158.14 488.07 149.07 C 490.23 138.87 490.50 128.12 493.00 118.00
C 395.05 145.02 280.84 146.65 183.00 118.00
C 184.51 129.05 186.36 140.00 188.01 150.99 C 187.65 158.50 196.73 177.21 184.08 175.92 C 176.72 168.77 179.65 155.70 176.93 146.07 C 174.81 135.52 173.45 124.72 172.00 114.00
M 191.00 186.00 
C 195.74 190.17 200.07 206.91 189.00 206.00 C 183.38 201.92 179.97 184.82 191.00 186.00
M 349.00 347.00 
C 338.67 347.00 328.33 347.00 318.00 347.00
C 314.43 321.28 327.37 298.37 348.75 284.75 C 369.97 272.81 377.50 239.28 354.75 225.25 C 331.19 211.65 298.03 231.33 304.00 260.00
C 293.98 257.28 267.38 267.58 272.98 249.98 C 273.68 187.17 375.47 173.48 396.98 230.03 C 412.46 263.99 385.13 294.50 358.25 312.25 C 349.25 321.44 348.03 334.34 349.00 347.00
M 339.00 370.00 
C 363.23 375.05 355.55 415.22 330.99 409.01 C 305.24 406.38 313.41 363.61 339.00 370.00 Z"/>
</g>
<g fill="#FFFFFF" fill-opacity="1.00" stroke="None">
<path d="
M 191.00 186.00 
C 179.97 184.82 183.38 201.92 189.00 206.00 C 200.07 206.91 195.74 190.17 191.00 186.00 Z"/>
</g>
<g fill="#FFFFFF" fill-opacity="1.00" stroke="None">
<path d="
M 349.00 347.00 
C 348.03 334.34 349.25 321.44 358.25 312.25 C 385.13 294.50 412.46 263.99 396.98 230.03 C 375.47 173.48 273.68 187.17 272.98 249.98 C 267.38 267.58 293.98 257.28 304.00 260.00
C 298.03 231.33 331.19 211.65 354.75 225.25 C 377.50 239.28 369.97 272.81 348.75 284.75 C 327.37 298.37 314.43 321.28 318.00 347.00
C 328.33 347.00 338.67 347.00 349.00 347.00 Z"/>
</g>
<g fill="#FFFFFF" fill-opacity="1.00" stroke="None">
<path d="
M 339.00 370.00 
C 313.41 363.61 305.24 406.38 330.99 409.01 C 355.55 415.22 363.23 375.05 339.00 370.00 Z"/>
</g>
<g fill="#000000" fill-opacity="1.00" stroke="None">
<path d="
M 480.00 429.00 
C 441.52 464.30 388.03 470.89 337.00 472.00 C 286.04 470.89 232.89 464.83 194.00 430.00
C 198.54 449.35 191.13 477.14 213.25 486.75 C 288.46 521.48 387.01 522.04 461.77 485.77 C 482.22 474.81 473.62 447.50 480.00 429.00
M 240.00 463.00 
C 249.49 474.12 227.18 477.51 220.33 480.67 C 211.01 471.26 232.35 464.48 240.00 463.00
M 427.00 469.00 
C 434.67 471.44 444.37 471.37 451.25 476.75 C 456.13 488.49 439.62 481.48 433.99 480.01 C 425.42 482.09 412.21 470.03 427.00 469.00 Z"/>
</g>
<g fill="#FFFFFF" fill-opacity="1.00" stroke="None">
<path d="
M 240.00 463.00 
C 232.35 464.48 211.01 471.26 220.33 480.67 C 227.18 477.51 249.49 474.12 240.00 463.00 Z"/>
</g>
<g fill="#FFFFFF" fill-opacity="1.00" stroke="None">
<path d="
M 427.00 469.00 
C 412.21 470.03 425.42 482.09 433.99 480.01 C 439.62 481.48 456.13 488.49 451.25 476.75 C 444.37 471.37 434.67 471.44 427.00 469.00 Z"/>
</g>
</svg>
